<svg width="1000" height="1000" xmlns="http://www.w3.org/2000/svg" xmlns:xlink="http://www.w3.org/1999/xlink" version="1.1" baseProfile="full" viewBox="0 0 1000 1000">
<rect width="1000" height="1000" x="0" y="0" fill="rgb(252,252,252)" fill-opacity="0"></rect>
<path d="M138.5 60L138.5 776" fill="transparent" stroke="#eeeeee" class="zr1-cls-2"></path>
<path d="M223.5 60L223.5 776" fill="transparent" stroke="#eeeeee" class="zr1-cls-2"></path>
<path d="M307.5 60L307.5 776" fill="transparent" stroke="#eeeeee" class="zr1-cls-2"></path>
<path d="M392.5 60L392.5 776" fill="transparent" stroke="#eeeeee" class="zr1-cls-2"></path>
<path d="M477.5 60L477.5 776" fill="transparent" stroke="#eeeeee" class="zr1-cls-2"></path>
<path d="M561.5 60L561.5 776" fill="transparent" stroke="#eeeeee" class="zr1-cls-2"></path>
<path d="M646.5 60L646.5 776" fill="transparent" stroke="#eeeeee" class="zr1-cls-2"></path>
<path d="M730.5 60L730.5 776" fill="transparent" stroke="#eeeeee" class="zr1-cls-2"></path>
<path d="M815.5 60L815.5 776" fill="transparent" stroke="#eeeeee" class="zr1-cls-2"></path>
<path d="M900.5 60L900.5 776" fill="transparent" stroke="#eeeeee" class="zr1-cls-2"></path>
<path d="M138.5 776L138.5 60" fill="transparent" stroke="#cccccc" stroke-linecap="round" class="zr1-cls-2"></path>
<text dominant-baseline="central" text-anchor="middle" style="font-size:12px;font-family:sans-serif;" y="-6" transform="translate(138.24 45)" fill="#cccccc">UPS</text>
<path d="M138.2 776.5L900 776.5" fill="transparent" stroke="#cccccc" stroke-linecap="round" class="zr1-cls-2"></path>
<text dominant-baseline="central" text-anchor="end" style="font-size:12px;font-family:sans-serif;" transform="translate(130.24 775.9746)" fill="#999999">91</text>
<text dominant-baseline="central" text-anchor="end" style="font-size:12px;font-family:sans-serif;" transform="translate(130.24 632.7797)" fill="#999999">157.4</text>
<text dominant-baseline="central" text-anchor="end" style="font-size:12px;font-family:sans-serif;" transform="translate(130.24 489.5848)" fill="#999999">223.8</text>
<text dominant-baseline="central" text-anchor="end" style="font-size:12px;font-family:sans-serif;" transform="translate(130.24 346.3898)" fill="#999999">290.2</text>
<text dominant-baseline="central" text-anchor="end" style="font-size:12px;font-family:sans-serif;" transform="translate(130.24 203.1949)" fill="#999999">356.6</text>
<text dominant-baseline="central" text-anchor="end" style="font-size:12px;font-family:sans-serif;" transform="translate(130.24 60)" fill="#999999">423</text>
<text dominant-baseline="central" text-anchor="end" style="font-size:12px;font-family:sans-serif;" transform="matrix(0.707,-0.707,0.707,0.707,180.56,783.9746)" fill="#999999">lava.cloned</text>
<text dominant-baseline="central" text-anchor="end" style="font-size:12px;font-family:sans-serif;" transform="matrix(0.707,-0.707,0.707,0.707,265.2,783.9746)" fill="#999999">recycler.unc.bulk.handoff.cloned</text>
<text dominant-baseline="central" text-anchor="end" style="font-size:12px;font-family:sans-serif;" transform="matrix(0.707,-0.707,0.707,0.707,349.84,783.9746)" fill="#999999">lava.cloned.nomineroverlap</text>
<text dominant-baseline="central" text-anchor="end" style="font-size:12px;font-family:sans-serif;" transform="matrix(0.707,-0.707,0.707,0.707,434.48,783.9746)" fill="#999999">recycler.leg.stack.handoff.cloned</text>
<text dominant-baseline="central" text-anchor="end" style="font-size:12px;font-family:sans-serif;" transform="matrix(0.707,-0.707,0.707,0.707,519.12,783.9746)" fill="#999999">recycler.shuffle.cloned</text>
<text dominant-baseline="central" text-anchor="end" style="font-size:12px;font-family:sans-serif;" transform="matrix(0.707,-0.707,0.707,0.707,603.76,783.9746)" fill="#999999">landfill.recycler.bulk.handoff.cloned</text>
<text dominant-baseline="central" text-anchor="end" style="font-size:12px;font-family:sans-serif;" transform="matrix(0.707,-0.707,0.707,0.707,688.4,783.9746)" fill="#999999">landfill.lava.cloned</text>
<text dominant-baseline="central" text-anchor="end" style="font-size:12px;font-family:sans-serif;" transform="matrix(0.707,-0.707,0.707,0.707,773.04,783.9746)" fill="#999999">landfill.recycler.shuffle.cloned</text>
<text dominant-baseline="central" text-anchor="end" style="font-size:12px;font-family:sans-serif;" transform="matrix(0.707,-0.707,0.707,0.707,857.68,783.9746)" fill="#999999">infinity.cloned</text>
<path d="M155.6 765.2L205.6 765.2L205.6 759.2L155.6 759.2ZM180.6 765.2M180.6 759.2M155.6 765.2L205.6 765.2M155.6 759.2L205.6 759.2M155.6 761.9L205.6 761.9" fill="#fff" stroke="#3FB1E3" ecmeta_series_index="0" ecmeta_data_index="0" ecmeta_ssr_type="chart" class="zr1-cls-3"></path>
<path d="M240.2 734.2L290.2 734.2L290.2 725.8L240.2 725.8ZM265.2 734.2M265.2 725.8M240.2 734.2L290.2 734.2M240.2 725.8L290.2 725.8M240.2 729.6L290.2 729.6" fill="#fff" stroke="#3FB1E3" ecmeta_series_index="0" ecmeta_data_index="1" ecmeta_ssr_type="chart" class="zr1-cls-3"></path>
<path d="M324.8 724.1L374.8 724.1L374.8 718.9L324.8 718.9ZM349.8 724.1M349.8 718.9M324.8 724.1L374.8 724.1M324.8 718.9L374.8 718.9M324.8 719.1L374.8 719.1" fill="#fff" stroke="#3FB1E3" ecmeta_series_index="0" ecmeta_data_index="2" ecmeta_ssr_type="chart" class="zr1-cls-3"></path>
<path d="M409.5 713.8L459.5 713.8L459.5 711L409.5 711ZM434.5 713.8M434.5 711M409.5 713.8L459.5 713.8M409.5 711L459.5 711M409.5 712.1L459.5 712.1" fill="#fff" stroke="#3FB1E3" ecmeta_series_index="0" ecmeta_data_index="3" ecmeta_ssr_type="chart" class="zr1-cls-3"></path>
<path d="M494.1 596.7L544.1 596.7L544.1 591L494.1 591ZM519.1 596.7M519.1 591M494.1 596.7L544.1 596.7M494.1 591L544.1 591M494.1 594.6L544.1 594.6" fill="#fff" stroke="#3FB1E3" ecmeta_series_index="0" ecmeta_data_index="4" ecmeta_ssr_type="chart" class="zr1-cls-3"></path>
<path d="M578.8 401.4L628.8 401.4L628.8 391.6L578.8 391.6ZM603.8 401.4M603.8 391.6M578.8 401.4L628.8 401.4M578.8 391.6L628.8 391.6M578.8 395.1L628.8 395.1" fill="#fff" stroke="#3FB1E3" ecmeta_series_index="0" ecmeta_data_index="5" ecmeta_ssr_type="chart" class="zr1-cls-3"></path>
<path d="M663.4 292.6L713.4 292.6L713.4 288.8L663.4 288.8ZM688.4 292.6M688.4 288.8M663.4 292.6L713.4 292.6M663.4 288.8L713.4 288.8M663.4 292.3L713.4 292.3" fill="#fff" stroke="#3FB1E3" ecmeta_series_index="0" ecmeta_data_index="6" ecmeta_ssr_type="chart" class="zr1-cls-3"></path>
<path d="M748 305.4L798 305.4L798 260L748 260ZM773 305.4M773 260M748 305.4L798 305.4M748 260L798 260M748 263.3L798 263.3" fill="#fff" stroke="#3FB1E3" ecmeta_series_index="0" ecmeta_data_index="7" ecmeta_ssr_type="chart" class="zr1-cls-3"></path>
<path d="M832.7 122L882.7 122L882.7 103.6L832.7 103.6ZM857.7 122M857.7 103.6M832.7 122L882.7 122M832.7 103.6L882.7 103.6M832.7 110.5L882.7 110.5" fill="#fff" stroke="#3FB1E3" ecmeta_series_index="0" ecmeta_data_index="8" ecmeta_ssr_type="chart" class="zr1-cls-3"></path>
<path d="M-194.5 -5l389.1 0l0 28l-389.1 0Z" transform="translate(500 5)" fill="rgb(0,0,0)" fill-opacity="0" stroke="#ccc" stroke-width="0" class="zr1-cls-2"></path>
<text dominant-baseline="central" text-anchor="middle" style="font-size:18px;font-family:sans-serif;font-weight:bold;" xml:space="preserve" y="9" transform="translate(500 5)" fill="#666666">Benchmark Results - Effective UPS Distribution</text>
<style ><![CDATA[
.zr1-cls-2:hover {
pointer-events:none;
}
.zr1-cls-3:hover {
cursor:pointer;
fill:rgba(255,255,255,1);
stroke-width:2;
}

]]>

</style>
</svg>